<svg width="41" height="38" viewBox="0 0 41 38" fill="none" xmlns="http://www.w3.org/2000/svg">
<path d="M19.6458 34.8333C17.0264 34.8333 14.8056 33.9888 12.9833 32.3C11.1611 30.6111 10.25 28.5527 10.25 26.125V9.49996C10.25 7.75829 10.9191 6.26732 12.2573 5.02704C13.5955 3.78676 15.2042 3.16663 17.0833 3.16663C18.9625 3.16663 20.5712 3.78676 21.9094 5.02704C23.2476 6.26732 23.9167 7.75829 23.9167 9.49996V24.5416C23.9167 25.65 23.5038 26.5868 22.6781 27.352C21.8524 28.1173 20.8417 28.5 19.6458 28.5C18.45 28.5 17.4392 28.1173 16.6135 27.352C15.7878 26.5868 15.375 25.65 15.375 24.5416V9.49996H17.9375V24.5416C17.9375 24.9902 18.1012 25.3663 18.4286 25.6698C18.7561 25.9732 19.1618 26.125 19.6458 26.125C20.1299 26.125 20.5356 25.9732 20.863 25.6698C21.1905 25.3663 21.3542 24.9902 21.3542 24.5416V9.49996C21.3542 8.39163 20.9413 7.45482 20.1156 6.68954C19.2899 5.92426 18.2792 5.54163 17.0833 5.54163C15.8875 5.54163 14.8767 5.92426 14.051 6.68954C13.2253 7.45482 12.8125 8.39163 12.8125 9.49996V26.125C12.8125 27.8666 13.4816 29.3576 14.8198 30.5979C16.158 31.8382 17.7667 32.4583 19.6458 32.4583C21.525 32.4583 23.1337 31.8382 24.4719 30.5979C25.8101 29.3576 26.4792 27.8666 26.4792 26.125V9.49996H29.0417V26.125C29.0417 28.5527 28.1306 30.6111 26.3083 32.3C24.4861 33.9888 22.2653 34.8333 19.6458 34.8333Z" fill="#1D1B20"/>
</svg>
